<?xml version="1.0" encoding="UTF-8"?>
<svg id="Layer_2" data-name="Layer 2" xmlns="http://www.w3.org/2000/svg" viewBox="0 0 84.34 74.44">
  <defs>
    <style>
      .cls-1 {
        fill: none;
        stroke: #ff004f;
        stroke-linecap: round;
        stroke-linejoin: round;
        stroke-width: 3px;
      }
    </style>
  </defs>
  <g id="Layer_1-2" data-name="Layer 1">
    <g>
      <path class="cls-1" d="M11,10.2c-.44,12.21-.88,24.41-1.32,36.62"/>
      <path class="cls-1" d="M1.5,38.86l6.67,7.03c.33,.35,.67,.7,1.12,.86,.61,.22,1.3,.02,1.83-.35s.92-.9,1.31-1.42c1.56-2.1,3.11-4.2,4.67-6.3"/>
      <path class="cls-1" d="M39.47,48.43c6.07-10.7,12.13-21.41,18.2-32.11,2.66-4.7,5.37-9.51,6.39-14.82"/>
      <path class="cls-1" d="M35.68,38.89l3.99,9.9c3.36-1.79,7.04-2.96,10.81-3.43"/>
      <path class="cls-1" d="M53.13,68.7c10.32-1.7,19.27-8.97,29.71-9.66"/>
      <path class="cls-1" d="M57.02,59.97l-3.98,8.74c2.73,1.41,5.45,2.82,8.18,4.23"/>
    </g>
  </g>
</svg>