<?xml version="1.0" encoding="UTF-8"?>
<svg id="Layer_2" data-name="Layer 2" xmlns="http://www.w3.org/2000/svg" viewBox="0 0 74.38 91.85">
  <defs>
    <style>
      .cls-1 {
        fill: none;
        stroke: #da3832;
        stroke-linecap: round;
        stroke-linejoin: round;
        stroke-width: 3px;
      }
    </style>
  </defs>
  <g id="Layer_1-2" data-name="Layer 1">
    <g>
      <path class="cls-1" d="M5.38,80.46c12.18,.92,17.82,.8,30,1.72"/>
      <path class="cls-1" d="M46.67,50.54c-10.45-6.49-14.6-8.48-25.05-14.96-4.59-2.85-13.84-9.25-20.12-12.85"/>
      <path class="cls-1" d="M36.99,53.94c3.35-1.2,6.7-2.4,10.05-3.6-1.3-4.07-2.47-7.52-3-10.94"/>
      <path class="cls-1" d="M67.47,37.69c-1.29-10.38-6.53-24.84-8.46-36.19"/>
      <path class="cls-1" d="M58.9,33.46c2.86,1.44,5.72,2.88,8.58,4.32,1.52-2.67,3.89-5.62,5.41-8.29"/>
      <path class="cls-1" d="M31.19,74.92l7.62,7.34c-2.53,2.7-5.05,5.39-7.58,8.09"/>
    </g>
  </g>
</svg>