<?xml version="1.0" encoding="UTF-8"?>
<svg id="Layer_2" data-name="Layer 2" xmlns="http://www.w3.org/2000/svg" viewBox="0 0 84.34 74.44">
  <defs>
    <style>
      .cls-1 {
        fill: #da3832;
      }
    </style>
  </defs>
  <g id="Layer_1-2" data-name="Layer 1">
    <g>
      <path class="cls-1" d="M18,37.47c-.66-.49-1.6-.35-2.1,.31l-4.61,6.22,1.21-33.75c.03-.83-.62-1.52-1.45-1.55-.82-.03-1.52,.62-1.55,1.45l-1.21,33.69-5.71-6.01c-.57-.6-1.52-.62-2.12-.05-.6,.57-.63,1.52-.06,2.12l6.67,7.03c.39,.41,.91,.96,1.71,1.25,.33,.12,.68,.17,1.03,.17,.74,0,1.5-.25,2.16-.72,.73-.52,1.24-1.2,1.65-1.75l4.67-6.3c.49-.67,.35-1.6-.31-2.1Z"/>
      <path class="cls-1" d="M51.97,45.17c-.1-.82-.85-1.4-1.67-1.3-2.62,.33-5.16,.97-7.6,1.9l16.27-28.71c2.57-4.53,5.48-9.67,6.55-15.28,.16-.81-.38-1.6-1.19-1.76-.82-.15-1.6,.38-1.76,1.19-.98,5.12-3.64,9.82-6.22,14.36l-16.63,29.34-2.66-6.59c-.31-.77-1.18-1.14-1.95-.83-.77,.31-1.14,1.18-.83,1.95l3.7,9.17c.03,.26,.13,.51,.29,.72h0c.16,.41,.48,.72,.88,.86,.17,.06,.34,.09,.51,.09,.24,0,.49-.06,.71-.18,3.22-1.71,6.68-2.81,10.3-3.27,.82-.1,1.4-.85,1.3-1.67Z"/>
      <path class="cls-1" d="M82.74,57.55c-5.9,.39-11.32,2.77-16.56,5.08-3.43,1.51-6.95,3.05-10.55,3.99l2.74-6.03c.34-.75,.01-1.64-.74-1.99-.75-.34-1.64-.01-1.99,.74l-3.98,8.74c-.33,.73-.03,1.59,.68,1.95l8.18,4.23c.22,.11,.46,.17,.69,.17,.54,0,1.07-.29,1.33-.81,.38-.74,.09-1.64-.64-2.02l-4.55-2.36c3.47-1.01,6.79-2.46,10.04-3.89,5.23-2.3,10.18-4.48,15.55-4.83,.83-.05,1.45-.77,1.4-1.59-.05-.83-.75-1.45-1.59-1.4Z"/>
    </g>
  </g>
</svg>