<?xml version="1.0" encoding="UTF-8"?>
<svg id="Layer_2" data-name="Layer 2" xmlns="http://www.w3.org/2000/svg" viewBox="0 0 433.86 309.87">
  <defs>
    <style>
      .cls-1 {
        fill: #e03b2e;
      }
    </style>
  </defs>
  <g id="Layer_1-2" data-name="Layer 1">
    <g>
      <path class="cls-1" d="M94.43,309.87c-1.72,0-3.42-.06-5.11-.17-18.08-1.25-34.32-9.26-44.56-21.98-6.72-8.35-10.68-18.36-14.48-28.73-5.28-14.42-10.29-29.89-16.24-50.15-.23-.79,.22-1.63,1.02-1.86,.79-.23,1.63,.22,1.86,1.02,5.94,20.19,10.93,35.6,16.18,49.96,3.71,10.13,7.57,19.88,14,27.88,9.57,11.9,25.43,19.7,42.42,20.87,15.05,1.03,31.36-2.76,47.19-10.99,12.51-6.5,25.09-15.85,39.6-29.41,.61-.57,1.55-.53,2.12,.07,.57,.61,.53,1.55-.07,2.12-9.26,8.65-23.5,21.17-40.26,29.88-14.55,7.56-29.54,11.5-43.67,11.5Z"/>
      <path class="cls-1" d="M1.5,232.93c-.26,0-.53-.07-.77-.21-.71-.42-.94-1.35-.52-2.06,2.27-3.8,4.59-7.86,6.84-11.78,2.25-3.93,4.58-8,6.86-11.82,.36-.6,1.09-.87,1.75-.66,4.9,1.6,9.06,4.4,13.09,7.1,4.04,2.71,7.85,5.27,12.35,6.74,.79,.26,1.22,1.1,.96,1.89-.26,.79-1.11,1.22-1.89,.96-4.9-1.6-9.06-4.4-13.09-7.1-3.69-2.48-7.2-4.83-11.22-6.34-2.07,3.49-4.17,7.16-6.2,10.71-2.25,3.94-4.58,8.01-6.87,11.83-.28,.47-.78,.73-1.29,.73Z"/>
      <g>
        <path class="cls-1" d="M185.1,262.13c-.39,0-.78-.15-1.08-.46-.58-.59-.56-1.54,.03-2.12l2.88-2.78c.6-.57,1.55-.56,2.12,.04,.58,.6,.56,1.55-.04,2.12l-2.88,2.78c-.29,.28-.67,.42-1.04,.42Z"/>
        <path class="cls-1" d="M193.53,254.02c-.4,0-.79-.16-1.08-.46-.57-.6-.55-1.55,.05-2.12,1.85-1.77,3.71-3.54,5.57-5.31,.6-.57,1.55-.55,2.12,.05,.57,.6,.55,1.55-.05,2.12-1.86,1.77-3.71,3.53-5.56,5.3-.29,.28-.66,.42-1.04,.42Zm11.14-10.6c-.4,0-.79-.16-1.09-.47-.57-.6-.54-1.55,.06-2.12l5.58-5.29c.6-.57,1.55-.54,2.12,.06,.57,.6,.54,1.55-.06,2.12l-5.58,5.29c-.29,.27-.66,.41-1.03,.41Zm11.16-10.57c-.4,0-.79-.16-1.09-.47-.57-.6-.54-1.55,.06-2.12l5.58-5.29c.6-.57,1.55-.55,2.12,.05,.57,.6,.55,1.55-.05,2.12l-5.58,5.29c-.29,.27-.66,.41-1.03,.41Zm11.15-10.59c-.4,0-.79-.16-1.08-.46-.57-.6-.55-1.55,.05-2.12,1.85-1.77,3.71-3.54,5.55-5.32,.6-.57,1.55-.56,2.12,.04,.57,.6,.55,1.55-.04,2.12-1.85,1.78-3.7,3.55-5.56,5.32-.29,.28-.66,.42-1.04,.42Zm11.09-10.66c-.39,0-.78-.15-1.08-.46-.58-.59-.56-1.54,.03-2.12,1.84-1.79,3.67-3.57,5.5-5.36,.59-.58,1.54-.57,2.12,.02,.58,.59,.57,1.54-.02,2.12-1.83,1.79-3.67,3.58-5.51,5.37-.29,.28-.67,.42-1.04,.42Zm10.98-10.77c-.39,0-.77-.15-1.06-.44-.58-.59-.58-1.54,0-2.12,1.82-1.81,3.63-3.62,5.43-5.43,.58-.59,1.53-.59,2.12,0,.59,.58,.59,1.53,0,2.12-1.8,1.82-3.62,3.64-5.44,5.45-.29,.29-.68,.44-1.06,.44Z"/>
        <path class="cls-1" d="M259.86,189.9c-.38,0-.75-.14-1.05-.42-.59-.58-.61-1.53-.03-2.12,.93-.96,1.85-1.91,2.78-2.87,.58-.6,1.52-.61,2.12-.04,.6,.57,.62,1.52,.04,2.12-.92,.96-1.85,1.92-2.79,2.88-.29,.3-.68,.45-1.08,.45Z"/>
      </g>
      <path class="cls-1" d="M372.28,203.97c-8.96,0-18.17-4.58-24.95-12.48-5.59-6.52-9.61-14.98-12.66-26.64-2.25-8.61-3.56-17.45-3.99-26.36-3.57,1.04-7.22,2.33-10.93,3.86-17.73,7.32-34.03,19.45-49.84,37.09-.55,.62-1.5,.67-2.12,.12-.62-.55-.67-1.5-.12-2.12,16.11-17.98,32.77-30.36,50.93-37.86,4.06-1.68,8.05-3.07,11.96-4.17-.88-34.88,11.73-70.39,35.23-96.04C382.96,20.65,406.46,6.69,431.98,.05c.8-.21,1.62,.27,1.83,1.07,.21,.8-.27,1.62-1.07,1.83-24.97,6.49-47.95,20.15-64.72,38.45-22.82,24.91-35.14,59.34-34.46,93.22,7.3-1.81,14.32-2.59,20.96-2.34,13.38,.51,25.46,5.26,34.01,13.38,9.51,9.02,14.09,22.47,11.69,34.26-2.63,12.89-13.92,23.21-26.25,24-.56,.04-1.11,.05-1.67,.05Zm-38.63-66.28c.39,8.92,1.68,17.79,3.93,26.41,2.92,11.2,6.75,19.28,12.03,25.44,6.59,7.68,15.6,11.94,24.15,11.39,11.03-.71,21.14-10,23.51-21.61,2.21-10.8-2.04-23.15-10.81-31.48-8.03-7.62-19.41-12.08-32.06-12.56-6.56-.25-13.49,.56-20.75,2.41Z"/>
    </g>
  </g>
</svg>