<?xml version="1.0" encoding="UTF-8"?>
<svg id="Layer_1" data-name="Layer 1" xmlns="http://www.w3.org/2000/svg" viewBox="0 0 612.52 684.94">
  <defs>
    <style>
      .cls-1 {
        fill: #e61a4a;
      }
    </style>
  </defs>
  <path class="cls-1" d="M541.31,375.69c-13.24-.87-9.74-30.91-37.77-27.57-19.99,2.31-22.2,25.18-23.92,43.02-1.96,19.99-4.35,36.88-10.49,34.09-5.15-2.31-3.8-11.39-5.95-39.19-2.51-31.86-10.67-49.39-30.29-52.41-24.1-3.67-33.42,31.39-37.6,45.01-4.11,13.46-11.35,19.6-15.94,19.6-4.05,0-10.74-1.83-12.63-17.77-1.9-16.09,11.84-43.65,30.79-62.93,56.98-57.91,138.86-98.78,138.86-188.33C536.35,44.69,473.3,0,415.28,0c-44.41,0-69.12,25.1-77.71,33.3-13.8,13.23-19.81,27.96-25.09,27.96s-11.16-14.73-24.9-27.96C279,25.1,254.22,0,209.88,0c-58.02,0-121.07,44.69-121.07,129.21,0,89.54,81.82,130.42,138.86,188.33,18.95,19.28,32.32,46.76,30.73,62.93-1.72,17.36-8.65,16.57-11.84,16.49-1.84-.16-10.73-3.18-16.19-22.95-4.97-18.09-11.23-34.65-32.02-35.76-23.12-1.35-29.2,29.4-31.15,53.76-1.72,20.95-2.33,60.31-10.49,57.04-4.78-1.91-7.11-47-10.98-81.57-3.01-26.77-6.68-83.97-22.87-94.16-19.57-12.35-36.73,1.52-42.14,23.42-3.98,16.41-4.6,29.95-9.69,52.02-3.81,16.26-8.09,26.77-24.66,26.77l-46.36,.23v24.22H10.61c59.98,2.39,76.92-3.51,84.09-29.64,6.38-23.34,8.9-50.11,10.31-57.59,2.21-11.31,9.5-16.97,12.63,14.57,1.6,15.69,3.12,35.7,5.58,56.01,7.36,59.74,9.26,101.01,36.37,103.16,30.05,2.47,30.24-50.67,32.21-71.7,1.22-13.38,3.01-51.7,10.06-47.56,9.74,5.65,6,53.69,52.25,55.68,26.5,1.2,36.19-18.16,37.9-39.59,1.6-20.24-18.39-50.28-45.69-76.16-65.68-62.37-111.5-94.48-111.5-163.23s50.78-104.99,95.18-104.99c9.75,0,39.62-1.6,75.69,54.73,1.53,2.39,4.42,3.35,6.87,3.74,2.51-.4,5.4-1.36,6.87-3.74,36.06-56.32,65.92-54.73,75.74-54.73,44.34,0,95.19,34.81,95.19,104.99s-46.18,99.18-111.87,161.56c-27.23,25.81-45.88,57.52-45.32,77.83,.48,19.52,11.41,40.78,37.9,39.59,44.71-1.99,42.19-37.28,51.34-56.32,4.97-10.19,11.35-10.19,12.94,5.18,1.72,16.1,1.72,20.71,3.44,37.05,2.21,21.03,9.93,44.69,29.68,42.86,16.93-1.6,26.69-11.71,29.87-41.98,.91-8.84,1.6-12.82,2.75-25.65,.68-7.24,3.01-12.82,6.26-11.78,3.43,1.19,6.43,8.68,8.77,13.69,6.99,15.06,23.12,14.27,26.86,14.35,16.37,.31,22.08,.07,22.08,.07l47.47-.15v-23.66c-27.3-.08-63.23-.32-71.21-.88"/>
  <polyline class="cls-1" points="36.99 683.75 53.42 683.75 53.42 654.36 79.67 654.36 79.67 640.89 53.42 640.89 53.42 624.24 81.51 624.24 81.51 610.7 36.99 610.7 36.99 683.75"/>
  <path class="cls-1" d="M115.55,673.08h-.12c-6.93,0-10.73-6.78-10.73-15.78,0-7.97,3.06-15.93,10.85-15.93s10.49,7.96,10.49,15.78c0,9.56-3.99,15.93-10.49,15.93m.62-43.49c-17.11,0-28.34,10.91-28.34,28.04s11.9,27.32,27.41,27.32h.06c14.11,0,27.84-8.92,27.84-28.2,0-16.01-10.79-27.16-26.98-27.16Z"/>
  <path class="cls-1" d="M203.32,630.78h-16.44v31.47c0,1.43-.25,2.63-.67,3.58-.99,2.63-3.69,5.73-8.22,5.73-5.9,0-8.34-4.61-8.34-12.35v-28.43h-16.5v31.06c0,16.33,7.79,23.1,18.65,23.1,9.51,0,14.54-5.42,16.56-8.69h.37l.73,7.49h14.29c-.18-4.46-.42-10.12-.42-17.05v-35.93"/>
  <path class="cls-1" d="M247.84,629.58c-8.89,0-14.17,5.1-16.31,8.52h-.37l-.73-7.33h-14.3c.19,4.7,.43,10.27,.43,16.88v36.09h16.44v-30.59c0-1.52,.13-3.03,.55-4.14,1.23-3.03,3.93-6.14,8.47-6.14,5.95,0,8.33,4.62,8.33,11.48v29.39h16.5v-31.31c0-15.61-8.16-22.86-19.02-22.86"/>
  <path class="cls-1" d="M314.94,660.25c0,1.27-.13,2.55-.3,3.66-.99,4.62-4.91,7.89-9.64,7.89-6.86,0-11.28-5.65-11.28-14.5,0-8.36,3.8-15.06,11.34-15.06,5.1,0,8.72,3.59,9.69,7.97,.19,1.04,.19,2.07,.19,3.03v7.02m16.49-53.45h-16.49v28.68h-.19c-2.39-3.59-7.42-5.89-13.98-5.89-12.7,0-23.86,10.35-23.74,28.12,0,16.48,10.05,27.24,22.63,27.24,6.8,0,13.31-3.03,16.56-8.92h.37l.62,7.73h14.65c-.24-3.59-.43-9.8-.43-15.85v-61.1Z"/>
  <path class="cls-1" d="M372.84,664.47c0,.96-.12,1.91-.37,2.79-1.04,3.35-4.54,6.06-8.52,6.06-3.68,0-6.5-2.08-6.5-6.3,0-6.29,6.69-8.28,15.39-8.28v5.73m15.88-12.03c0-12.51-5.52-22.86-23.18-22.86-9.63,0-16.87,2.71-20.55,4.7l3.01,10.51c3.49-2.07,9.19-3.9,14.66-3.9,8.1,0,9.63,4.06,9.63,6.86v.64c-18.77,0-31.1,6.53-31.1,20.32,0,8.44,6.38,16.25,17.11,16.25,6.25,0,11.72-2.31,15.15-6.53h.38l.91,5.34h14.91c-.67-2.95-.92-7.8-.92-12.83v-18.48Z"/>
  <path class="cls-1" d="M419.45,616.35l-16.13,4.38v10.04h-7.05v12.1h7.05v21.75c0,7.49,1.47,12.59,4.54,15.77,2.7,2.71,7.12,4.54,12.46,4.54,4.53,0,8.52-.64,10.61-1.44l-.13-12.43c-1.47,.32-2.58,.4-4.85,.4-4.9,0-6.5-2.95-6.5-9.32v-19.28h11.77v-12.1h-11.77v-14.42"/>
  <rect class="cls-1" x="440.8" y="630.78" width="16.43" height="52.97"/>
  <path class="cls-1" d="M449.13,606.23c-5.64,0-9.32,3.83-9.32,8.77s3.56,8.77,9.08,8.77h.12c5.77,0,9.32-3.9,9.32-8.77-.12-4.94-3.55-8.77-9.2-8.77"/>
  <path class="cls-1" d="M495.19,673.08h-.12c-6.93,0-10.74-6.78-10.74-15.78,0-7.97,3.07-15.93,10.86-15.93s10.49,7.96,10.49,15.78c0,9.56-3.99,15.93-10.49,15.93m.62-43.49c-17.11,0-28.4,10.91-28.4,28.04s11.96,27.32,27.47,27.32h.06c14.11,0,27.84-8.92,27.84-28.2,0-16.01-10.79-27.16-26.98-27.16Z"/>
  <path class="cls-1" d="M564.32,629.58c-8.9,0-14.17,5.1-16.37,8.52h-.31l-.73-7.33h-14.35c.24,4.7,.43,10.27,.43,16.88v36.09h16.5v-30.59c0-1.52,.12-3.03,.55-4.14,1.17-3.03,3.92-6.14,8.46-6.14,5.95,0,8.34,4.62,8.34,11.48v29.39h16.44v-31.31c0-15.61-8.1-22.86-18.95-22.86"/>
  <path class="cls-1" d="M59.06,573.34c-2.58,0-4.35,0-5.82-.32v-18.56h5.09c7.48,0,13.43,2.63,13.43,9.24,0,7.01-5.95,9.64-12.7,9.64m-5.82-44.85c1.17-.31,3.07-.56,6.38-.56,6.75,0,10.61,2.71,10.61,7.65s-4.11,8.12-12.08,8.12h-4.91v-15.22Zm21.09,19.6v-.23c7.36-2.87,10.8-8.21,10.8-14.02s-3.25-10.6-7.85-12.99c-4.85-2.86-10.43-3.74-19.5-3.74-7.55,0-15.4,.64-19.32,1.44v64.84c3.31,.49,8.83,.96,16.19,.96,13.13,0,21.16-2.15,25.94-5.97,4.11-3.27,6.87-7.97,6.87-14.02,0-8.52-5.58-14.35-13.13-16.26Z"/>
  <path class="cls-1" d="M110.58,544.66h-.37l-.62-8.93h-12.75c.31,4.06,.43,8.69,.43,15.78l-.13,32.1h14.9v-24.22c0-1.27,.13-2.31,.3-3.27,.98-4.78,4.72-7.56,10.19-7.56,1.65,0,2.88,.15,4.11,.39v-14.01c-1.05-.24-1.72-.32-3.13-.32-4.66,0-10.49,2.95-12.94,10.04"/>
  <rect class="cls-1" x="134.25" y="535.65" width="14.9" height="47.96"/>
  <path class="cls-1" d="M141.8,513.51c-5.09,0-8.46,3.51-8.46,7.97s3.25,7.97,8.22,7.97h.12c5.21,0,8.47-3.59,8.47-7.97-.13-4.46-3.26-7.97-8.34-7.97"/>
  <path class="cls-1" d="M177.74,522.67l-14.59,3.99v9.08h-6.38v10.92h6.38v19.75c0,6.78,1.34,11.31,4.11,14.19,2.45,2.47,6.5,4.13,11.28,4.13,4.11,0,7.73-.64,9.63-1.27l-.12-11.31c-1.35,.31-2.33,.39-4.42,.39-4.42,0-5.89-2.63-5.89-8.44v-17.44h10.68v-10.92h-10.68v-13.06"/>
  <rect class="cls-1" x="197.06" y="535.65" width="14.9" height="47.96"/>
  <path class="cls-1" d="M204.6,513.51c-5.09,0-8.4,3.51-8.4,7.97s3.25,7.97,8.22,7.97h.12c5.15,0,8.41-3.59,8.41-7.97-.13-4.46-3.26-7.97-8.34-7.97"/>
  <path class="cls-1" d="M244.41,554.46c-5.89-2.07-7.73-3.27-7.73-5.66s2.03-3.82,5.71-3.82c3.99,0,8.22,1.6,10.36,2.71l2.58-10.19c-2.94-1.52-7.85-2.87-13.5-2.87-11.84,0-19.44,6.78-19.44,15.78-.12,5.57,3.69,11.07,13.68,14.34,5.52,1.83,6.99,3.02,6.99,5.57s-1.9,3.9-6.38,3.9-10.12-1.83-12.82-3.5l-2.69,10.6c3.68,1.91,9.26,3.42,15.51,3.42,13.74,0,20.66-6.61,20.66-15.61-.12-6.93-3.8-11.63-12.94-14.65"/>
  <path class="cls-1" d="M295.19,534.62c-2.76,0-5.46,.72-7.73,1.83-2.39,1.2-4.36,2.87-5.9,5.02h-.18v-27.41h-14.91v69.55h14.91v-28.43c0-1.04,.06-2.32,.49-3.19,1.04-2.78,3.49-5.33,7.42-5.33,5.58,0,7.79,4.38,7.79,10.59v26.37h14.84v-27.88c0-14.5-7.24-21.11-16.75-21.11"/>
  <polyline class="cls-1" points="383.82 543.06 359.22 543.06 359.22 517.57 344.32 517.57 344.32 583.61 359.22 583.61 359.22 556.13 383.82 556.13 383.82 583.61 398.72 583.61 398.72 517.57 383.82 517.57 383.82 543.06"/>
  <path class="cls-1" d="M422.83,554.14c.43-3.9,2.94-9.72,9.32-9.72,6.75,0,8.34,6.22,8.34,9.72h-17.66m10.12-19.6c-16.56,0-24.23,13.39-24.23,25.57,0,15.05,9.32,24.53,25.57,24.53,6.5,0,12.46-1.03,17.35-3.02l-1.96-10.12c-3.99,1.35-8.16,2.07-13.25,2.07-6.93,0-13-2.94-13.5-9.23l30.86,.07c.18-1.19,.49-3.42,.49-5.97,0-11.87-5.89-23.9-21.34-23.9Z"/>
  <path class="cls-1" d="M488.7,566.17c0,.87-.06,1.75-.3,2.55-.92,3.03-4.11,5.49-7.74,5.49-3.31,0-5.89-1.83-5.89-5.65,0-5.65,6.07-7.57,13.93-7.57v5.18m14.41-10.84c0-11.31-4.97-20.71-20.98-20.71-8.71,0-15.27,2.47-18.64,4.3l2.75,9.56c3.13-1.91,8.34-3.59,13.25-3.59,7.36,0,8.71,3.67,8.71,6.22v.56c-16.92,0-28.09,5.89-28.09,18.32,0,7.65,5.76,14.73,15.45,14.73,5.71,0,10.62-2.07,13.74-5.89h.3l.86,4.78h13.43c-.61-2.63-.8-7.01-.8-11.55v-16.73Z"/>
  <path class="cls-1" d="M528.44,544.66h-.43l-.55-8.93h-12.76c.3,4.06,.37,8.69,.37,15.78l-.06,32.1h14.91v-24.22c0-1.27,.06-2.31,.24-3.27,.99-4.78,4.73-7.56,10.25-7.56,1.65,0,2.82,.15,4.11,.39v-14.01c-1.1-.24-1.77-.32-3.13-.32-4.72,0-10.49,2.95-12.94,10.04"/>
  <path class="cls-1" d="M570.94,522.67l-14.6,3.99v9.08h-6.38v10.92h6.38v19.75c0,6.78,1.41,11.31,4.11,14.19,2.45,2.47,6.5,4.13,11.29,4.13,4.11,0,7.73-.64,9.63-1.27l-.13-11.31c-1.35,.31-2.33,.39-4.42,.39-4.42,0-5.89-2.63-5.89-8.44v-17.44h10.73v-10.92h-10.73v-13.06"/>
</svg>