<?xml version="1.0" encoding="utf-8"?>
<!-- Generator: Adobe Illustrator 26.4.1, SVG Export Plug-In . SVG Version: 6.00 Build 0)  -->
<svg version="1.1" id="Layer_1" xmlns="http://www.w3.org/2000/svg" xmlns:xlink="http://www.w3.org/1999/xlink" x="0px" y="0px"
	 viewBox="0 0 1000 4000" style="enable-background:new 0 0 1000 4000;" xml:space="preserve">
<style type="text/css">
	.st0{fill:#FFFFFF;}
</style>
<g>
	<path class="st0" d="M690.6,1958.8H554.4l-79.6,79.2H584c-14.3,32-46.3,54.3-83.6,54.3c-50.6,0-91.6-41-91.6-91.6
		c0-50.6,41-91.6,91.6-91.6c18.3,0,35.3,5.3,49.6,14.6l73.6-73.6c-33.6-27.6-76.6-44.3-123.9-44.3c-107.5,0-194.8,87.2-194.8,194.8
		c0,107.6,87.2,194.8,194.8,194.8c107.5,0,194.8-87.2,194.8-194.8C695.2,1986.5,693.6,1972.2,690.6,1958.8"/>
</g>
</svg>
