<?xml version="1.0" encoding="UTF-8"?>
<svg id="Layer_2" data-name="Layer 2" xmlns="http://www.w3.org/2000/svg" viewBox="0 0 75.02 75.38">
  <defs>
    <style>
      .cls-1 {
        fill: #fff;
      }

      .cls-2 {
        fill: #dfb057;
      }
    </style>
  </defs>
  <g id="Layer_1-2" data-name="Layer 1">
    <g>
      <path class="cls-2" d="M0,32.05l.21-1.01,2.21-.85-1.68-1.66,.21-.99,5.14,1.08-.18,.85-3.85-.81,1.76,1.8-.02,.07-2.36,.94,3.87,.81-.18,.85-5.14-1.08Z"/>
      <path class="cls-2" d="M4.18,19.63l.62-1.11,5.42,1.06-.44,.79-1.28-.25-1.03,1.85,.88,.96-.42,.75-3.75-4.05Zm3.46,.32l-2.5-.5,1.73,1.87,.77-1.37Z"/>
      <path class="cls-2" d="M9.86,11.65l.81-.77,4.1,1.33-2.64-2.74,.62-.6,3.64,3.78-.75,.72-4.23-1.36,2.72,2.82-.63,.6-3.64-3.78Z"/>
      <path class="cls-2" d="M18.87,4.56l1.79-.9c1.17-.59,2.37-.03,3.08,1.39,.71,1.4,.44,2.72-.72,3.3l-1.79,.9-2.36-4.69Zm4.08,.88c-.48-.96-1.23-1.4-2.02-1l-.91,.46,1.62,3.22,.9-.46c.82-.41,.89-1.28,.41-2.23Z"/>
      <path class="cls-2" d="M30.4,3.13l-2-2.39,.97-.19,1.29,1.57,.6-1.93,.96-.19-.96,2.97,.48,2.47-.86,.17-.48-2.47Z"/>
      <path class="cls-2" d="M46.69,.74l.84,.24-1.19,4.21,1.95,.55-.24,.84-2.79-.78,1.42-5.05Z"/>
      <path class="cls-2" d="M55.88,4.31l2.65,1.59-.43,.71-1.9-1.14-.69,1.15,1.6,.96-.43,.71-1.6-.96-.73,1.22,1.87,1.12-.43,.71-2.62-1.57,2.7-4.51Z"/>
      <path class="cls-2" d="M63.89,10.03l.59,.67-2.29,3.33,3.65-1.78,.63,.72-2.21,3.36,3.57-1.82,.58,.67-4.86,2.43-.65-.74,2.31-3.45-3.73,1.84-.65-.75,3.06-4.48Z"/>
      <path class="cls-2" d="M71.81,21.17l.37,.8-4.75,2.22-.38-.8,4.75-2.22Z"/>
      <path class="cls-2" d="M70.1,29.35l.76,.41c-.27,.45-.48,1.01-.36,1.66,.13,.67,.49,.93,.86,.86,.25-.05,.43-.26,.48-.6l.19-1.34c.12-.8,.52-1.23,1.07-1.34,.93-.17,1.67,.53,1.86,1.54,.17,.88-.02,1.55-.32,2.01l-.75-.44c.23-.39,.35-.86,.25-1.4-.12-.62-.46-.93-.81-.86-.25,.05-.38,.23-.43,.55l-.19,1.35c-.11,.82-.51,1.26-1.14,1.38-.99,.19-1.7-.5-1.9-1.58-.13-.68,0-1.55,.44-2.2Z"/>
    </g>
    <rect class="cls-2" x="37.11" y="10.29" width="1" height="8.5"/>
    <rect class="cls-2" x="49.67" y="20.8" width="8.5" height="1" transform="translate(.73 44.36) rotate(-45)"/>
    <rect class="cls-2" x="56.43" y="37.11" width="8.5" height="1"/>
    <rect class="cls-2" x="53.42" y="49.67" width="1" height="8.5" transform="translate(-22.33 53.92) rotate(-45)"/>
    <rect class="cls-2" x="37.11" y="56.43" width="1" height="8.5"/>
    <rect class="cls-2" x="17.05" y="53.42" width="8.5" height="1" transform="translate(-31.89 30.85) rotate(-45)"/>
    <rect class="cls-2" x="10.29" y="37.11" width="8.5" height="1"/>
    <rect class="cls-2" x="20.8" y="17.05" width="1" height="8.5" transform="translate(-8.82 21.3) rotate(-45)"/>
    <g>
      <path class="cls-2" d="M5.98,46l.9,2.9-.83,.26-.64-2.07-1.22,.38,.58,1.87-.81,.25-.58-1.87-2.16,.67-.26-.83,5.02-1.55Z"/>
      <path class="cls-2" d="M6.82,55.09c1.28-.84,2.79-.69,3.52,.43,.73,1.12,.27,2.56-1.01,3.4s-2.78,.69-3.51-.43c-.74-1.13-.28-2.56,1-3.4Zm2.03,3.09c.85-.56,1.25-1.49,.78-2.19-.47-.71-1.48-.72-2.33-.16-.85,.56-1.23,1.5-.77,2.19,.45,.69,1.47,.72,2.31,.16Z"/>
      <path class="cls-2" d="M12.94,64.17l2.25-2.69,.67,.56-2.21,2.64c-.4,.48-.3,1.09,.13,1.45,.44,.37,1.04,.34,1.44-.13l2.21-2.64,.67,.56-2.25,2.69c-.7,.84-1.79,.88-2.62,.19-.83-.69-.99-1.77-.29-2.61Z"/>
      <path class="cls-2" d="M23.06,66.96l1.03,.43,.39,4.29,1.48-3.5,.79,.34-2.04,4.84-.95-.4-.41-4.42-1.52,3.61-.8-.34,2.04-4.84Z"/>
      <path class="cls-2" d="M32.47,69.95l1.99,.2c1.31,.13,2.02,1.24,1.86,2.82-.15,1.56-1.08,2.53-2.38,2.4l-1.99-.2,.51-5.22Zm2.97,2.93c.1-1.07-.29-1.84-1.17-1.92l-1.01-.1-.35,3.59,1.01,.1c.92,.09,1.43-.61,1.53-1.66Z"/>
      <path class="cls-2" d="M43.1,69.85l1.25-.23,2.66,4.84-.88,.17-.63-1.14-2.08,.39-.17,1.29-.85,.16,.7-5.47Zm1.97,2.86l-1.22-2.23-.33,2.53,1.55-.29Z"/>
      <path class="cls-2" d="M51.98,67.95l-1.31,.64-.38-.78,3.42-1.68,.38,.78-1.33,.65,1.93,3.93-.79,.39-1.93-3.93Z"/>
      <path class="cls-2" d="M58.29,62.94l.68-.57,3.38,4.02-.68,.57-3.38-4.02Z"/>
      <path class="cls-2" d="M65.07,59.95c-1.25-.89-1.65-2.35-.87-3.44,.77-1.09,2.28-1.18,3.53-.29s1.65,2.33,.87,3.43c-.78,1.1-2.28,1.19-3.53,.3Zm2.14-3.01c-.83-.59-1.84-.62-2.33,.06-.49,.69-.13,1.63,.7,2.23,.82,.59,1.84,.6,2.32-.08,.48-.67,.14-1.62-.69-2.21Z"/>
      <path class="cls-2" d="M68.03,49.76l.35-1.06,4.25-.73-3.61-1.19,.27-.82,4.99,1.65-.32,.98-4.38,.77,3.72,1.23-.27,.83-4.99-1.65Z"/>
    </g>
    <polygon class="cls-2" points="36.49 28.37 29.58 23.32 24.35 33.97 28.08 39.26 36.49 51.15 50.87 33.6 43.59 25.19 36.49 28.37"/>
    <polygon class="cls-1" points="37.52 42.62 34.92 37.58 33.24 39.61 26.68 39.51 26.69 38.51 32.78 38.6 35.12 35.77 37.33 40.08 40.18 31.75 42.46 38.4 48.63 39.12 48.51 40.11 41.72 39.32 40.18 34.84 37.52 42.62"/>
  </g>
</svg>