<?xml version="1.0" encoding="UTF-8"?>
<svg id="Layer_2" data-name="Layer 2" xmlns="http://www.w3.org/2000/svg" viewBox="0 0 160.44 499.54">
  <defs>
    <style>
      .cls-1 {
        fill: #d92d8a;
      }
    </style>
  </defs>
  <g id="Layer_1-2" data-name="Layer 1-2">
    <g>
      <path class="cls-1" d="M2.74,499.54c-.55,0-1.07-.3-1.34-.82-.38-.74-.08-1.64,.66-2.02,33.57-17.1,64.39-41.87,89.1-71.65,24.72-29.77,43.4-64.62,54.03-100.77,.23-.8,1.07-1.25,1.86-1.02s1.25,1.07,1.02,1.86c-10.74,36.54-29.62,71.75-54.6,101.84S37.36,482.09,3.42,499.38c-.22,.11-.45,.16-.68,.16Z"/>
      <path class="cls-1" d="M150.68,315.09c-.14,0-.29-.02-.43-.06-.79-.24-1.25-1.07-1.01-1.87,.75-2.52,1.46-5.1,2.11-7.65,.2-.8,1.02-1.29,1.82-1.09s1.29,1.02,1.09,1.82c-.66,2.6-1.38,5.21-2.14,7.77-.19,.65-.79,1.07-1.44,1.07h0Zm3.92-15.5c-.1,0-.21,0-.31-.03-.81-.17-1.33-.96-1.16-1.77,.54-2.58,1.03-5.2,1.47-7.8,.14-.82,.9-1.36,1.73-1.23,.82,.14,1.37,.91,1.23,1.73-.44,2.64-.94,5.31-1.49,7.92-.15,.71-.77,1.19-1.47,1.19h0Zm2.65-15.78c-.06,0-.13,0-.19-.01-.82-.11-1.4-.86-1.3-1.68,.33-2.6,.62-5.25,.85-7.9,.07-.83,.79-1.44,1.63-1.36,.83,.07,1.43,.8,1.36,1.63-.24,2.68-.53,5.38-.87,8.01-.1,.76-.74,1.31-1.49,1.31h0Zm1.42-15.93h-.08c-.83-.04-1.46-.75-1.42-1.58,.14-2.61,.23-5.29,.27-7.94,0-.83,.67-1.45,1.52-1.48,.83,.01,1.49,.7,1.48,1.52-.04,2.69-.14,5.4-.27,8.05-.04,.8-.7,1.42-1.5,1.42h0Zm.26-15.98c-.82,0-1.48-.65-1.5-1.47-.05-2.63-.14-5.3-.28-7.94-.04-.83,.59-1.53,1.42-1.58,.8-.04,1.53,.59,1.58,1.42,.14,2.68,.24,5.38,.29,8.04,0,.83-.64,1.51-1.47,1.53h-.04Zm-.83-15.98c-.77,0-1.43-.59-1.49-1.37-.22-2.63-.49-5.29-.8-7.91-.1-.82,.49-1.57,1.31-1.66,.81-.11,1.57,.49,1.66,1.31,.31,2.65,.58,5.34,.81,8.01,.07,.83-.54,1.55-1.37,1.62h-.12Zm-1.86-15.89c-.73,0-1.37-.53-1.48-1.28-.39-2.6-.82-5.24-1.29-7.85-.15-.82,.4-1.6,1.21-1.74,.82-.14,1.59,.4,1.74,1.21,.47,2.63,.91,5.3,1.3,7.94,.12,.82-.44,1.58-1.26,1.7-.07,0-.15,.02-.22,.02h0Zm-2.83-15.75c-.69,0-1.32-.48-1.47-1.19-.54-2.58-1.13-5.19-1.75-7.76-.19-.8,.3-1.62,1.11-1.81s1.62,.3,1.81,1.11c.63,2.6,1.22,5.24,1.77,7.85,.17,.81-.35,1.61-1.16,1.78-.1,.02-.21,.03-.31,.03h0Zm-3.72-15.56c-.67,0-1.27-.44-1.45-1.12-.67-2.54-1.38-5.13-2.1-7.69-.23-.8,.24-1.63,1.04-1.85,.8-.23,1.63,.24,1.85,1.04,.73,2.58,1.44,5.18,2.12,7.74,.21,.8-.27,1.62-1.07,1.83-.13,.03-.26,.05-.38,.05h0Zm-4.36-15.39c-.64,0-1.24-.42-1.43-1.06-.78-2.56-1.59-5.12-2.39-7.6-.26-.79,.17-1.63,.96-1.89,.79-.26,1.63,.17,1.89,.96,.82,2.5,1.63,5.08,2.41,7.66,.24,.79-.21,1.63-1,1.87-.15,.04-.29,.07-.44,.07h0Zm-4.96-15.22c-.62,0-1.2-.39-1.42-1.01-.88-2.5-1.79-5.03-2.71-7.49-.29-.78,.1-1.64,.88-1.93s1.64,.1,1.93,.88c.93,2.49,1.85,5.03,2.73,7.56,.27,.78-.14,1.64-.92,1.91-.16,.06-.33,.08-.49,.08h0Zm-5.6-14.99c-.59,0-1.16-.36-1.39-.94-.99-2.47-2.01-4.94-3.04-7.36-.33-.76,.03-1.64,.79-1.97s1.64,.03,1.97,.79c1.04,2.44,2.08,4.94,3.07,7.43,.31,.77-.07,1.64-.84,1.95-.18,.07-.37,.11-.56,.11h0Zm-6.3-14.72c-.57,0-1.11-.32-1.36-.88-1.1-2.41-2.25-4.83-3.41-7.19-.37-.74-.06-1.64,.69-2.01,.74-.37,1.64-.06,2.01,.69,1.17,2.39,2.33,4.83,3.45,7.26,.35,.75,0,1.64-.74,1.99-.2,.09-.42,.14-.62,.14h-.02Zm-7.06-14.36c-.54,0-1.06-.29-1.33-.8-1.24-2.36-2.53-4.71-3.82-6.98-.41-.72-.16-1.64,.56-2.04,.72-.41,1.64-.16,2.04,.56,1.3,2.3,2.6,4.67,3.86,7.06,.39,.73,.11,1.64-.63,2.03-.22,.12-.46,.17-.7,.17h.02Zm-7.9-13.92c-.5,0-1-.25-1.28-.72-1.39-2.28-2.83-4.54-4.26-6.71-.46-.69-.27-1.62,.43-2.08,.69-.46,1.62-.27,2.08,.43,1.45,2.2,2.91,4.49,4.32,6.8,.43,.71,.21,1.63-.5,2.06-.24,.15-.51,.22-.78,.22h-.01Zm-8.81-13.35c-.47,0-.93-.22-1.22-.63-.93-1.3-1.87-2.58-2.82-3.86-.5-.66-.36-1.6,.3-2.1s1.6-.36,2.1,.3c.97,1.29,1.92,2.59,2.86,3.91,.48,.67,.33,1.61-.35,2.09-.26,.19-.57,.28-.87,.28h0Z"/>
      <path class="cls-1" d="M94.78,74.19c-.41,0-.82-.17-1.11-.49C62.45,39.16,30.57,19.22,.78,2.81,.05,2.41-.21,1.5,.19,.78,.59,.05,1.5-.21,2.22,.19c30.03,16.53,62.16,36.63,93.67,71.5,.56,.61,.51,1.56-.11,2.12-.29,.26-.65,.39-1.01,.39h.01Z"/>
    </g>
  </g>
</svg>