<?xml version="1.0" encoding="UTF-8"?>
<svg id="Layer_2" data-name="Layer 2" xmlns="http://www.w3.org/2000/svg" viewBox="0 0 433.87 309.87">
  <defs>
    <style>
      .cls-1, .cls-2 {
        fill: none;
        stroke: #e03b2e;
        stroke-linecap: round;
        stroke-linejoin: round;
        stroke-width: 3px;
      }

      .cls-2 {
        stroke-dasharray: 0 0 0 0 0 0 7.69 7.69;
      }
    </style>
  </defs>
  <g id="Layer_1-2" data-name="Layer 1-2">
    <g>
      <path class="cls-1" d="M15.48,208.41c4.96,16.86,10.17,33.55,16.21,50.05,3.65,9.97,7.59,20.04,14.24,28.31,10.42,12.96,26.9,20.28,43.49,21.43,16.59,1.14,33.23-3.48,47.98-11.16,14.75-7.67,27.78-18.29,39.93-29.64"/>
      <path class="cls-1" d="M1.5,231.43c4.55-7.62,9.15-15.98,13.7-23.6,9.4,3.07,16.04,10.76,25.44,13.84"/>
      <g>
        <path class="cls-1" d="M185.1,260.63c.96-.93,1.92-1.85,2.88-2.78"/>
        <path class="cls-2" d="M193.53,252.52c21.34-20.42,43.29-40.64,63.65-61.37"/>
        <path class="cls-1" d="M259.86,188.4c.93-.96,1.86-1.91,2.78-2.87"/>
      </g>
      <path class="cls-1" d="M268.81,178.45c14.56-16.26,30.83-29.41,50.38-37.48,11.18-4.61,23.18-7.65,35.27-7.19,12.08,.46,24.27,4.65,33.04,12.97,8.77,8.32,13.67,21.02,11.25,32.87-2.42,11.85-12.82,22.03-24.88,22.81-9.67,.62-19.07-4.55-25.38-11.91-6.31-7.35-9.9-16.66-12.34-26.04-11.22-42.99,.77-91.33,30.78-124.09,17.4-18.99,40.53-32.41,65.44-38.89"/>
    </g>
  </g>
</svg>