<?xml version="1.0" encoding="UTF-8"?>
<svg id="Layer_2" data-name="Layer 2" xmlns="http://www.w3.org/2000/svg" viewBox="0 0 359.73 74.69">
  <defs>
    <style>
      .cls-1 {
        fill: #d36a96;
      }

      .cls-2 {
        fill: #221f20;
      }

      .cls-3 {
        fill: none;
        stroke: #da3832;
        stroke-linecap: round;
        stroke-linejoin: round;
        stroke-width: 2.21px;
      }
    </style>
  </defs>
  <g id="Layer_1-2" data-name="Layer 1">
    <path class="cls-1" d="M0,30.02c.59,7.31,1.18,14.63,1.78,21.94,.07,.91,2.62,.89,2.58,0-.21-4.58-.32-9.17-.3-13.75,0-2.29,.05-4.59,.12-6.88,.07-2.32-.22-5.32,.98-7.4,1.94-3.35,4.31-.06,5.46,1.88,1.1,1.87,2.14,3.78,3.14,5.7,2.08,3.99,3.93,8.09,5.6,12.27,.29,.73,2.42,.68,2.54-.16,.62-4.64,1.61-9.2,3.07-13.65,.6-1.82,1.17-3.75,2.16-5.4,.7-1.16,2.05-3.32,3.86-1.61,.57,.55,.78,1.68,.94,2.4,.8,3.79,.52,7.73,1.38,11.56,.93,4.11,2.41,8.04,4.36,11.77,.4,.77,2.93,.51,2.49-.33-2.9-5.54-4.73-11.54-5.24-17.78-.27-3.29,.23-8.49-3.87-9.58-3.61-.96-6.06,2.09-7.28,5.07-2.29,5.57-3.65,11.6-4.45,17.56l2.54-.16c-2.19-5.47-4.71-10.81-7.59-15.95-1.78-3.17-4.02-7.51-8.41-6.42-4.93,1.23-4.2,7.88-4.29,11.73-.15,6.39-.07,12.78,.22,19.16h2.58c-.59-7.3-1.18-14.62-1.78-21.93-.07-.92-2.65-.87-2.58,0H0Z"/>
    <path class="cls-1" d="M64.2,30.9c-1.21-4.63-6.99-6.02-11.08-4.46-5.61,2.15-8.56,9.92-8.22,15.52,.36,5.95,6.33,9.3,11.41,5.96,5.53-3.64,8.18-11,7.99-17.36h-2.58c1.09,5.98,2.18,11.96,3.28,17.95,.15,.84,2.2,.91,2.53,.18,2.28-5.01,4.53-10.04,6.83-15.04,.38-.83,.99-2.67,1.87-3.03,.69-.28,1.68,.51,2.06,.98,.25,.31,.39,.83,.52,1.2,.81,2.38,.76,5.02,1.39,7.46,.93,3.59,2.97,6.85,6.65,8.07,2.65,.87,5.68,.38,7.65-1.64,.82-.84-1.65-1.25-2.23-.66-2.23,2.29-5.36,1.14-7.25-1.1-1.72-2.04-2.36-4.7-2.78-7.28-.48-2.88-.51-7.45-3.95-8.52-3.02-.94-5.01,1.22-6.21,3.72-2.45,5.11-4.69,10.34-7.04,15.5,.84,.06,1.69,.12,2.53,.18-1.09-5.99-2.18-11.97-3.28-17.96-.16-.88-2.61-.92-2.58,0,.13,4.28-.94,8.46-3.27,12.06-1.21,1.87-3.39,4.86-5.77,5.31-3.1,.58-4.89-2.99-5.17-5.49-.46-3.99,1.17-9,3.63-12.14,1.35-1.72,3.31-3.23,5.6-3.16,2.29,.08,4.3,1.53,4.88,3.76,.24,.93,2.78,.76,2.58,0h0Z"/>
    <path class="cls-1" d="M109.89,33.22c-4.39-3.72-11.15-2.73-14.86,1.46-3.38,3.82-5.89,12.72,.57,14.94,6.41,2.21,11.49-3.97,13.71-9.18,2.94-6.9,2.78-14.68,2.55-22.04-.03-.92-2.42-.89-2.58,0-1.43,7.77-.68,29.56,12.19,27.23,6.3-1.14,7.36-9.71,7.92-14.79,.09-.83-2.32-.89-2.53-.18-1.2,3.91-3.12,17.6,4.77,15.77,3.04-.71,5.46-4.1,7.23-6.47,2.52-3.39,4.38-7.17,5.63-11.2-.84-.06-1.69-.12-2.53-.18-2,11.41,5.46,24.1-.33,34.9-2.97,5.53-8.17,7.53-14.1,5.55-4.64-1.55-8.86-4.04-13.75-4.83-1.2-.19-2.41,.96-.69,1.24,5.76,.93,10.65,4.54,16.39,5.54,4.79,.83,9.53-.57,12.72-4.33,9.15-10.75,.2-25.77,2.35-38.07,.14-.8-2.31-.89-2.53-.18-1.6,5.17-4.23,9.96-7.91,13.95-.89,.97-2.96,3.63-4.59,1.99-.81-.81-.92-2.97-1.05-4.02-.37-3.15-.03-6.28,.9-9.31l-2.53-.18c-.39,3.59-.97,7.38-2.76,10.58-.5,.9-1.22,2.04-2.12,2.48-5.86,2.89-8.83-6.43-9.78-10.4-1.19-4.95-1.2-10.08-.28-15.08h-2.58c.29,9.13,.56,19.94-5.89,27.26-2.2,2.5-6.73,4.86-8.69,.68-1-2.14-.51-4.84,.25-6.96,1.8-5.05,7.68-9.8,12.71-5.53,.62,.52,3.1,.09,2.23-.64h0Z"/>
    <path class="cls-1" d="M168.96,17.47c-1.41,5.96-2.87,12.29-1.01,18.32,1.43,4.63,4.7,8.42,9.44,9.75,4.99,1.41,10.63,.37,15.48-1.13,5.31-1.65,10.3-4.34,14.55-7.92,2.74-2.3,7.44-7.85,2.5-10.6-2.99-1.66-7.33-.45-9.54,1.96-2.87,3.13-3.19,7.92-1.76,11.77,1.56,4.22,5.28,7.01,9.6,7.97,11.56,2.56,20.8-6.71,21.85-17.75,.08-.82-1.79-.69-2.2-.46-2.86,1.62-4.29,4.77-3.76,8.03,.58,3.57,3.39,5.97,6.82,6.77,8.59,2,15.03-4.99,15.81-13.08-.86,0-1.72,0-2.58,0,1.2,5.01,3.89,9.87,8.66,12.24,3.74,1.86,8.57,1.68,12.13-.51,3.75-2.31,5.25-6.83,2.71-10.65-2.2-3.3-6.18-4.65-9.86-3.16-1.3,.53,1.08,1.22,1.82,.92,3.49-1.42,6.65,3.12,6.78,6.14,.14,3.18-2.36,5.82-5.25,6.77-7.56,2.48-12.9-5.4-14.42-11.74-.2-.85-2.49-.96-2.58,0-.59,6.11-5.3,13.99-12.59,11.81-5.34-1.6-7.06-9.67-1.88-12.6l-2.2-.46c-.73,7.74-5.68,15.84-14.03,16.8-8.04,.93-14.75-6.34-12.76-14.28,.41-1.65,1.24-3.33,2.55-4.46,1.59-1.37,4.57-2.26,5.82-.03,2.27,4.04-4.17,8.42-6.92,10.3-3.6,2.46-7.6,4.34-11.81,5.5s-9.84,2.19-14.04-.19c-9.12-5.17-6.72-17.7-4.77-25.97,.18-.76-2.36-.95-2.58,0h0Z"/>
    <path class="cls-1" d="M276.67,30.46c-.94,4.31-1.69,10.33,3.15,12.67,2.76,1.33,7.05,.51,7.98-2.74,.28-.99-2.26-1.14-2.49-.35-.47,1.64-1.52,2.42-3.2,2.05s-2.6-1.57-3.17-3.19c-.97-2.72-.29-5.7,.31-8.42,.17-.78-2.38-.95-2.58,0h0Z"/>
    <path class="cls-1" d="M302.89,23.63c-1.25-1.55-3.29-1.82-5.12-1.14-2.4,.89-3.4,3.01-2.92,5.48,.69,3.59,4.14,6.24,4.27,9.98,.2,5.85-6.89,6.25-11.03,5.76-1.2-.14-2.42,1.04-.69,1.24,4.69,.55,11.33,.7,13.74-4.39,1.17-2.48,.22-5.01-1.05-7.24-.86-1.52-1.94-2.97-2.46-4.66-.3-.99-.45-2.03-.16-3.03,.21-.73,1.62-3.31,2.94-1.67,.55,.68,3.02,.32,2.49-.33h0Z"/>
    <g>
      <path class="cls-2" d="M169.97,64.72h5.51v1.21h-4.3v2.89h3.88v1.2h-3.88v4.51h-1.2v-9.81Z"/>
      <path class="cls-2" d="M182.33,69.63c0-2.7,1.58-5.06,4.16-5.06s4.18,2.35,4.18,5.06-1.54,5.04-4.18,5.04-4.16-2.33-4.16-5.04Zm7.1,0c0-2.05-1.16-3.88-2.94-3.88s-2.93,1.84-2.93,3.88,1.19,3.87,2.93,3.87,2.94-1.81,2.94-3.87Z"/>
      <path class="cls-2" d="M198.08,71.39v-6.67h1.21v6.61c0,1.34,1.04,2.16,2.21,2.16s2.19-.81,2.19-2.16v-6.61h1.2v6.67c0,1.96-1.44,3.29-3.39,3.29s-3.42-1.33-3.42-3.29Z"/>
      <path class="cls-2" d="M213.15,64.72h1.51l4.37,7.94v-7.94h1.21v9.81h-1.53l-4.36-7.93v7.93h-1.2v-9.81Z"/>
      <path class="cls-2" d="M228.63,64.72h3.56c2.69,0,3.95,2.24,3.95,4.93s-1.27,4.88-3.95,4.88h-3.56v-9.81Zm6.29,4.93c0-2.07-.91-3.73-2.87-3.73h-2.21v7.4h2.21c2.09,0,2.87-1.62,2.87-3.67Z"/>
      <path class="cls-2" d="M245.65,64.72h1.84l3.24,9.81h-1.26l-.87-2.62h-4.08l-.85,2.62h-1.22l3.21-9.81Zm2.55,5.98l-1.64-5-1.65,5h3.29Z"/>
      <path class="cls-2" d="M259.14,65.93h-2.9v-1.21h7.03v1.21h-2.93v8.6h-1.21v-8.6Z"/>
      <path class="cls-2" d="M270.69,64.72h1.21v9.81h-1.21v-9.81Z"/>
      <path class="cls-2" d="M279.46,69.63c0-2.7,1.58-5.06,4.16-5.06s4.17,2.35,4.17,5.06-1.54,5.04-4.17,5.04-4.16-2.33-4.16-5.04Zm7.1,0c0-2.05-1.16-3.88-2.94-3.88s-2.93,1.84-2.93,3.88,1.19,3.87,2.93,3.87,2.94-1.81,2.94-3.87Z"/>
      <path class="cls-2" d="M295.35,64.72h1.51l4.37,7.94v-7.94h1.21v9.81h-1.53l-4.36-7.93v7.93h-1.2v-9.81Z"/>
    </g>
    <g>
      <path class="cls-2" d="M43.49,1.21h-2.9V0h7.03V1.21h-2.93V9.81h-1.2V1.21Z"/>
      <path class="cls-2" d="M55.04,0h1.2V4.02h4.46V0h1.2V9.81h-1.2V5.23h-4.46v4.58h-1.2V0Z"/>
      <path class="cls-2" d="M70.3,0h5.62V1.21h-4.41v3.01h3.69v1.2h-3.69v3.18h4.34v1.21h-5.55V0Z"/>
    </g>
    <path class="cls-1" d="M279.66,24.28s-.08,0-.12,0c-.54-.07-.92-.56-.85-1.09,.29-2.26,1.4-5,1.44-5.12,.2-.5,.77-.74,1.27-.54,.5,.2,.74,.77,.54,1.27-.01,.02-1.06,2.62-1.31,4.63-.06,.49-.48,.85-.97,.85Z"/>
    <path class="cls-3" d="M349.07,20.99c3.37-1.25,7.81,.02,9.14,3.35,.89,2.24,.24,4.86-1.1,6.86s-3.27,3.52-5.18,5c-5.19,4.03-10.37,8.06-15.56,12.09-2.96-4.96-5.93-9.91-8.89-14.87-1.67-2.79-3.37-5.68-3.83-8.9s.66-6.89,3.49-8.49c3.13-1.77,7.27-.39,9.76,2.2,1.43,1.5,4.1,6.67,4.1,6.67,0,0,6.11-3.19,8.07-3.92Z"/>
  </g>
</svg>