<?xml version="1.0" encoding="UTF-8"?>
<svg id="Layer_2" data-name="Layer 2" xmlns="http://www.w3.org/2000/svg" viewBox="0 0 344.8 348.72">

  <g id="Layer_1-2" data-name="Layer 1">
    <path fill="#e35e9d" class="cls-1" d="M314.16,181.38c8.04-4.53,36.15-22.97,29.67-57.59-6.5-34.45-37.69-40.28-46.5-41.25L284.01,2.45c-.16-.96-.8-1.78-1.71-2.18-.91-.4-1.98-.35-2.87,.14L95.05,106.31c-3.75,.86-28.69,6.59-63.29,13.42-11.35,2.25-19.76,7.35-25.01,15.14-10.81,16.12-6.26,40.58-2.63,60.23l.22,1.21c5.51,30.01,14.83,60.54,42.41,59.79,1.95-.05,3.99-.27,6.07-.64,24.54-4.36,46.73-9.4,54.92-11.31l17.96,102.19c.25,1.43,1.47,2.44,2.91,2.38,.1,0,.2-.01,.33-.03,4.65-.65,45.63-6.34,54.36-8.37,2.15-.3,7.16-2.6,9.49-16.98l11.64-69.84,118.76,14.12c.96,.11,1.95-.25,2.65-.97,.7-.72,1.04-1.71,.89-2.66l-12.59-82.63Z"/>
  </g>
</svg>