<?xml version="1.0" encoding="UTF-8"?>
<svg id="Layer_1" data-name="Layer 1" xmlns="http://www.w3.org/2000/svg" viewBox="0 0 462.35 135.58">
  <defs>
    <style>
      .cls-1, .cls-2 {
        fill: none;
        stroke: #d92d8a;
        stroke-linecap: round;
        stroke-linejoin: round;
        stroke-width: 3px;
      }

      .cls-2 {
        stroke-dasharray: 0 0 0 0 0 0 7.69 7.69;
      }
    </style>
  </defs>
  <path class="cls-1" d="M460.85,134.08c-10.92-12.54-25.96-21.03-41.82-26.04s-32.58-6.71-49.19-7.27"/>
  <g>
    <path class="cls-1" d="M359.55,100.07c-1.33-.02-2.67-.04-4-.07"/>
    <path class="cls-2" d="M347.87,99.84c-29.53-.66-59.35-1.87-88.4-1.61"/>
    <path class="cls-1" d="M255.62,98.27c-1.33,.02-2.67,.04-4,.06"/>
  </g>
  <path class="cls-1" d="M242.25,98.99c-21.79,1.2-42.6-1.01-62.12-9.13-11.17-4.64-21.8-10.98-30.02-19.85-8.22-8.87-13.87-20.44-14.19-32.53s5.2-24.53,15.29-31.2,24.64-6.51,33.72,1.47c7.28,6.4,10.27,16.71,9.53,26.37s-4.79,18.78-9.68,27.14c-22.47,38.34-65.12,64.04-109.51,65.98-25.73,1.13-51.58-5.75-73.77-18.78"/>
</svg>