<?xml version="1.0" encoding="utf-8"?>
<!-- Generator: Adobe Illustrator 26.4.1, SVG Export Plug-In . SVG Version: 6.00 Build 0)  -->
<svg version="1.1" id="Layer_1" xmlns="http://www.w3.org/2000/svg" xmlns:xlink="http://www.w3.org/1999/xlink" x="0px" y="0px"
	 viewBox="0 0 458.2 135.6" style="enable-background:new 0 0 458.2 135.6;" xml:space="preserve">
<style type="text/css">
	.st0{fill:none;stroke:#D92D8A;stroke-width:3;stroke-linecap:round;stroke-linejoin:round;}
	.st1{fill:none;stroke:#D92D8A;stroke-width:3;stroke-linecap:round;stroke-linejoin:round;stroke-dasharray:0,0,7.69,7.69;}
</style>
<path class="st0" d="M459,134.1c-10.9-12.5-26-21-41.8-26s-32.6-6.7-49.2-7.3"/>
<g>
	<path class="st0" d="M357.6,100.1c-1.3,0-2.7,0-4-0.1"/>
	<path class="st1" d="M346,99.8c-29.5-0.7-59.4-1.9-88.4-1.6"/>
	<path class="st0" d="M253.7,98.3c-1.3,0-2.7,0-4,0.1"/>
</g>
<path class="st0" d="M240.4,99c-21.8,1.2-42.6-1-62.1-9.1c-11.2-4.6-21.8-11-30-19.8S134.3,49.6,134,37.5s5.2-24.5,15.3-31.2
	s24.6-6.5,33.7,1.5c7.3,6.4,10.3,16.7,9.5,26.4s-4.8,18.8-9.7,27.1c-22.5,38.3-65.1,64-109.5,66c-25.7,1.1-51.6-5.8-73.8-18.8"/>
</svg>
