<?xml version="1.0" encoding="UTF-8"?>
<svg id="Layer_2" data-name="Layer 2" xmlns="http://www.w3.org/2000/svg" viewBox="0 0 50.38 48.3">
  <defs>
    <style>
      .cls-1 {
        fill: #e03859;
        stroke: #e03859;
        stroke-linecap: round;
        stroke-linejoin: round;
        stroke-width: 3px;
      }
    </style>
  </defs>
  <g id="Layer_1-2" data-name="Layer 1">
    <path class="cls-1" d="M36.29,10.63c4.66-1.46,10.59,.57,12.17,5.19,1.06,3.1-.01,6.61-1.97,9.24s-4.69,4.55-7.38,6.42c-7.32,5.1-14.65,10.21-21.97,15.31-3.68-6.94-7.35-13.87-11.03-20.81-2.07-3.9-4.18-7.94-4.57-12.34-.39-4.4,1.38-9.3,5.33-11.28,4.37-2.18,9.9-.02,13.09,3.67,1.84,2.13,5.09,9.34,5.09,9.34,0,0,8.52-3.9,11.23-4.75Z"/>
  </g>
</svg>