<?xml version="1.0" encoding="UTF-8"?>
<svg id="Layer_2" data-name="Layer 2" xmlns="http://www.w3.org/2000/svg" viewBox="0 0 124.72 70.97">
  <defs>
    <style>
      .cls-1 {
        fill: none;
        stroke: #e03859;
        stroke-linecap: round;
        stroke-linejoin: round;
        stroke-width: 3px;
      }
    </style>
  </defs>
  <g id="Layer_1-2" data-name="Layer 1">
    <path class="cls-1" d="M1.5,7.26c8.03,10.91,23.18,15.98,36.16,12.11,3.21-.96,6.38-2.48,8.48-5.09s2.89-6.47,1.23-9.37c-2.1-3.66-7.6-4.44-11.1-2.06s-4.9,7.09-4.12,11.24,3.45,7.75,6.65,10.5c8.01,6.89,19.86,8.97,29.74,5.21s17.36-13.18,18.76-23.65c3.56,10.42,4.41,10.42,9.47,21.98h0c8.9,.46,17.53,1.16,26.44,1.61-6.51,5.82-13.02,11.65-19.53,17.47l11.02,22.24c-8.38-5.56-17.62-9.81-27.3-12.54-7.71,3.96-15.42,7.91-23.13,11.87,2.26-5.28,4.51-10.57,6.77-15.85,1.03-2.42,2.04-5.31,.64-7.54-1.72-2.74-5.75-2.5-8.88-1.69-9.16,2.37-17.76,6.86-24.94,13.02"/>
  </g>
</svg>